<?xml version="1.0" encoding="UTF-8"?>
<svg width="291px" height="41px" viewBox="0 0 291 41" version="1.1" xmlns="http://www.w3.org/2000/svg" xmlns:xlink="http://www.w3.org/1999/xlink">
    <!-- Generator: Sketch 42 (36781) - http://www.bohemiancoding.com/sketch -->
    <title>Logo</title>
    <desc>Created with Sketch.</desc>
    <defs></defs>
    <g id="Symbols" stroke="none" stroke-width="1" fill="none" fill-rule="evenodd">
        <g id="Topbar-/-L-XL-/-Index" transform="translate(-130.000000, -91.000000)" fill="#FFFFFF">
            <g id="Group" transform="translate(130.000000, 29.000000)">
                <g id="Logo" transform="translate(0.000000, 62.000000)">
                    <g id="Wave">
                        <g id="Shape">
                            <path d="M184.19311,18.3793103 C175.668704,20.6826375 166.865573,22.1454599 158.020146,22.8752588 C153.594179,23.2310224 149.15086,23.3847209 144.717301,23.2783142 C140.753344,23.1794313 136.808908,22.8580618 132.898093,22.2335947 C132.555381,22.7753011 132.134584,23.2546683 131.634615,23.6663222 C135.909833,24.5422959 140.279404,25.0356357 144.635961,25.2753193 C149.148691,25.5182274 153.670097,25.4956563 158.178488,25.2677956 C167.196355,24.7927277 176.176264,23.5781874 185,21.4747757 L184.19311,18.3793103 Z" fill-rule="nonzero"></path>
                            <path d="M164.791805,29.5005007 C158.559482,30.3483119 152.267305,30.7808185 145.99907,30.6026553 C142.863864,30.5043583 139.735188,30.2524724 136.655482,29.725355 C134.105747,29.2670454 131.549482,28.6612904 129.216305,27.5689655 C128.917041,28.0960829 128.518747,28.5924826 128.076923,29.047106 C130.719158,30.4773267 133.546394,31.2280696 136.343158,31.8276811 C139.514276,32.4776697 142.710423,32.8352248 145.909835,33.0367336 C152.30757,33.4250066 158.709658,33.1878652 165.076923,32.5292756 L164.791805,29.5005007 Z" fill-rule="nonzero"></path>
                            <path d="M130.405439,33.9317516 C129.145641,33.6563932 127.895815,33.3259632 126.669257,32.9324302 C125.68646,32.6123261 124.729147,32.2405923 123.815045,31.8103448 C123.396221,32.2761594 122.915348,32.678871 122.384615,33.0207743 C123.579041,33.7367061 124.824435,34.2656236 126.074261,34.7497954 C127.340706,35.2316725 128.62488,35.6470047 129.925674,36.0061179 C132.526154,36.7209023 135.185358,37.2234313 137.887773,37.4655172 L138.038462,34.9104211 C135.484518,34.8197823 132.925034,34.4801736 130.405439,33.9317516 Z" fill-rule="nonzero"></path>
                            <path d="M132.947028,16.521493 C132.683611,18.2503117 131.781082,19.9136285 130.454278,21.0615212 C129.471861,21.9194877 128.329665,22.5132993 127.148605,22.8966461 C126.963996,24.9819664 125.941634,26.9878256 124.399994,28.3590687 C122.584141,30.0223855 120.261964,30.8792783 117.953822,31.2744368 C117.821034,31.6309386 117.661256,31.9885141 117.475569,32.3181708 C116.693953,33.7302183 115.406014,34.8254948 113.999321,35.485882 C112.699507,36.1194242 111.266904,36.4351216 109.900156,36.5532396 C108.04112,40.4350281 102.773849,42.3743116 99.0061153,39.8927589 C97.9168191,39.1539842 97.0823038,38.0726672 96.6850184,36.8045089 C96.2866534,35.5631956 96.3924523,34.0072588 97.3478805,32.9119824 C98.2763192,31.8822078 99.5880088,31.3549718 100.956916,31.4204737 C101.633813,31.4591305 102.323664,31.7114736 102.868852,32.1334771 C103.425915,32.5554807 103.810246,33.1364067 104.060708,33.7173327 L103.093405,34.1532957 C102.66805,33.2158679 101.859445,32.5962851 100.891062,32.5833995 C99.9367131,32.5425951 98.901396,33.0182887 98.3162637,33.7312921 C97.7343701,34.4174506 97.6534016,35.4601108 97.9848327,36.3835791 C98.3022291,37.3210069 98.9650912,38.1532022 99.8168798,38.6804382 C101.5129,39.7767884 103.862066,39.6565228 105.627179,38.627822 C107.432237,37.6248924 108.746085,35.7382251 108.692106,33.8118272 C108.679151,32.8475544 108.360675,31.8983149 107.815487,31.0521601 C107.524001,30.6161972 107.232514,30.234998 106.860059,29.8516513 C106.528628,29.5080351 106.144298,29.2309946 105.705988,28.9807991 C103.95491,28.0036408 101.738532,27.7534453 99.6560224,28.0036408 C95.4100345,28.5040318 91.6282661,31.0510863 89.2143254,34.5752993 L86.6546414,32.6489013 C89.6537144,28.7155704 94.3768766,25.8388592 99.4336289,25.5349736 C101.941493,25.3889368 104.554076,25.7722835 106.811478,27.1703717 C107.367462,27.5279472 107.898615,27.9510246 108.363914,28.4643012 C108.776314,28.9260353 109.186554,29.4801163 109.50611,30.0213117 C110.167892,31.1305476 110.607281,32.4631339 110.566257,33.8096796 C110.553302,34.2574543 110.499323,34.7063029 110.393524,35.1293803 C111.441796,34.9446866 112.424214,34.6408011 113.338618,34.1661813 C114.507803,33.5723697 115.476187,32.6607131 116.046205,31.5396655 C116.631337,30.4304297 116.82998,29.1236146 116.656167,27.8715633 C116.498549,26.5905194 115.926371,25.495243 115.090776,24.478354 C113.419587,22.4853805 110.910643,21.2311816 108.29698,20.7307906 C105.670362,20.2293258 102.910956,20.4397907 100.256269,21.0872924 C97.5886268,21.7208346 95.0159879,22.7903398 92.5480682,24.0692361 C90.1060584,25.3492062 87.716948,26.9330618 85.224198,28.4256443 C80.300234,31.4602043 74.9671092,34.1790669 69.4072726,36.0925792 L68.2024614,32.5554807 C73.5755307,30.8792783 78.6290443,28.4911462 83.5799978,25.6412799 C86.0597929,24.2550036 88.513678,22.7108786 91.2212645,21.4437941 C93.8997022,20.163824 96.7292812,19.1351232 99.7002851,18.5402378 C102.646459,17.958238 105.765365,17.8154225 108.777393,18.5262784 C111.774307,19.2135107 114.666502,20.7844807 116.604348,23.2907308 C117.082601,23.9124612 117.504717,24.5846603 117.825352,25.3363206 C118.156783,26.0750953 118.329516,26.894405 118.42236,27.6729103 C118.489294,28.3859137 118.476339,29.1118028 118.356506,29.8248063 C120.239293,29.3491127 122.017361,28.5319506 123.343085,27.2390949 C124.883646,25.7862429 125.666341,23.6751513 125.426675,21.6156022 C125.202122,19.5442412 124.073961,17.6436145 122.481581,16.2047219 C120.89028,14.741132 118.899534,13.6845124 116.817025,12.9596971 C112.610981,11.5068451 107.979584,11.3232253 103.547908,11.9954243 C101.319655,12.3390405 99.1302669,12.8941953 97.0056537,13.6458556 C94.910189,14.3706708 92.7855758,15.3617886 90.7171006,16.3367994 C86.5628771,18.3308467 82.4907016,20.5869014 78.2576688,22.6324912 C74.0386705,24.6909665 69.635064,26.5379032 65.0706001,27.9241796 C56.0204816,30.7096178 46.4931888,31.6846286 37.1397084,31.6599312 L37.5780178,27.410903 C46.5471678,27.6610985 55.5022832,26.9620544 64.0871028,24.5857341 C68.4799135,23.3852252 72.7518112,21.7476796 76.9448996,19.8481267 C81.137988,17.9475 85.2770974,15.8095634 89.5749051,13.8960511 C91.7373037,12.9468115 93.8737923,12.0211955 96.1840933,11.2566497 C98.4652457,10.517875 100.827367,9.96379396 103.215397,9.64702284 C107.979584,9.03925182 112.941333,9.33025173 117.520911,11.0193398 C119.800984,11.8762325 121.991451,13.0778151 123.795429,14.8066338 C125.612362,16.5086074 126.952121,18.8591565 127.150764,21.4309085 C128.014428,21.0744068 128.796044,20.5869014 129.461065,19.9662447 C130.509337,19.0030458 131.145209,17.7348875 131.356807,16.2841832 C131.557609,14.8195194 131.225098,13.4590143 130.628091,12.1403874 C130.018128,10.8206867 129.341231,9.84460212 128.253015,8.66986448 C127.284632,7.62720428 126.328124,6.92708642 125.505484,6.39985042 C124.284479,5.60845952 122.998699,4.88149664 121.220631,4.2350688 C118.342471,3.1666374 115.129641,2.47940514 111.14923,2.47940514 C104.926532,2.47940514 99.4336289,3.9569545 93.1569513,6.51796846 C87.385517,8.86744375 81.8796594,12.2853504 76.0283362,14.9515968 C70.1910476,17.6575739 64.0741478,19.9007429 57.7704807,21.4309085 C51.4549381,22.9621479 45.0476313,23.859845 38.5971413,24.3355386 C25.7274691,25.2461213 12.6472788,24.467616 0,21.4717129 L1.00832764,17.3408028 C13.1363285,20.4548239 25.8084376,21.4588273 38.3715091,20.8113257 C44.6492663,20.4677095 50.9237848,19.7160492 57.0428438,18.3437323 C63.1575844,16.9832272 69.1039106,14.9258256 74.8731857,12.3916567 C80.6726891,9.88433273 87.0292556,6.13569552 93.106211,3.77333463 C99.7402296,1.18654945 104.727889,5.0228021e-15 111.297133,5.0228021e-15 C115.052991,5.0228021e-15 118.820725,0.870852129 121.910483,2.07136098 C123.809464,2.79725006 125.135188,3.54891034 126.701659,4.64418675 C127.645211,5.304574 128.678369,6.20119734 129.594933,7.1515107 C130.761959,8.37886457 131.690397,9.81775711 132.314395,11.4016127 C132.962142,13.0112395 133.22664,14.7658294 132.947028,16.521493 Z" fill-rule="nonzero"></path>
                        </g>
                    </g>
                    <text id="FID-AAC" font-family="OpenSans-Semibold, Open Sans" font-size="24" font-weight="500">
                        <tspan x="201.054688" y="29">FID AAC</tspan>
                    </text>
                </g>
            </g>
        </g>
    </g>
</svg>