<?xml version="1.0" encoding="UTF-8"?>
<svg width="260px" height="34px" viewBox="0 0 260 34" version="1.1" xmlns="http://www.w3.org/2000/svg" xmlns:xlink="http://www.w3.org/1999/xlink">
    <!-- Generator: Sketch 42 (36781) - http://www.bohemiancoding.com/sketch -->
    <title>Artboard</title>
    <desc>Created with Sketch.</desc>
    <defs>
        <polygon id="path-1" points="0.0614173228 29.472126 0.0614173228 0.454488189 29.5744882 0.454488189 29.5744882 29.472126 0.0614173228 29.472126"></polygon>
    </defs>
    <g id="Page-1" stroke="none" stroke-width="1" fill="none" fill-rule="evenodd">
        <g id="Artboard">
            <g id="dfg_logo_schriftzug_blau_4c">
                <g id="Group-3" transform="translate(0.000000, 1.023622)">
                    <mask id="mask-2" fill="white">
                        <use xlink:href="#path-1"></use>
                    </mask>
                    <g id="Clip-2"></g>
                    <path d="M0,29.472126 L15.4034646,29.472126 C19.4764567,29.472126 23.0151181,28.5969291 25.5240157,26.3848819 C28.0329134,24.1738583 29.5714173,20.5993701 29.5744882,15.0482677 C29.5724409,9.08669291 28.1373228,5.46614173 25.748189,3.32165354 C23.3590551,1.17511811 19.9381102,0.454488189 15.8559055,0.455511811 L15.8559055,0.454488189 L0,0.454488189 L0,6.72110236 L13.4299213,6.72110236 C15.4648819,6.71086614 16.8559843,7.43251969 17.642126,8.82874016 C18.430315,10.2137008 18.6667717,12.1851969 18.6698425,14.7514173 C18.6667717,17.2316535 18.4507874,19.1806299 17.68,20.5676378 C16.9102362,21.961811 15.5283465,22.7090551 13.4708661,22.6967717 L10.4112598,22.6967717 L10.4112598,12.425748 L0,12.425748 L0,29.472126" id="Fill-1" fill="#183267" mask="url(#mask-2)"></path>
                </g>
                <polyline id="Fill-4" fill="#183267" points="31.8356693 30.495748 42.2469291 30.495748 42.2469291 19.9698425 55.2172441 19.9698425 55.2172441 13.4493701 42.2469291 13.4493701 42.2469291 7.74472441 55.2172441 7.74472441 55.2172441 1.47811024 31.8356693 1.47811024 31.8356693 30.495748"></polyline>
                <path d="M62.3866929,4.6288189 C59.3107087,7.0619685 57.3668504,10.6804724 57.3627559,15.5631496 C57.3668504,20.7754331 59.2380315,24.6068504 62.2710236,27.1659055 C65.306063,29.723937 69.5305512,31.0044882 74.246378,31.0044882 C78.6643307,31.0034646 82.1538583,30.558189 85.8266142,29.4690551 L85.8266142,16.0800787 L76.9794488,16.0800787 L76.9794488,23.8780315 L76.783937,23.9537795 C76.0397638,24.2383465 75.1123622,24.226063 74.3282677,24.2301575 C72.0476378,24.2362992 70.422126,23.2822835 69.4240945,21.8041732 C68.4250394,20.3270866 68.0227559,18.359685 68.0207087,16.2837795 C68.0186614,13.5240945 68.9562992,11.3622047 70.6176378,9.91685039 C72.2779528,8.46944882 74.6271654,7.74472441 77.4134646,7.74472441 C80.2622047,7.74472441 82.5080315,8.38551181 84.1048819,9.22795276 L84.1048819,2.00834646 C81.4741732,1.36551181 79.4719685,0.971417323 74.246378,0.969370079 L74.2443307,0.969370079 C69.6943307,0.969370079 65.4637008,2.19874016 62.3866929,4.6288189" id="Fill-5" fill="#183267"></path>
                <path d="M101.699921,11.2076378 L102.54748,11.2076378 C105.700236,11.2782677 107.318583,9.77661417 107.400472,6.70574803 C107.375906,5.09149606 106.970551,3.95220472 106.183386,3.28889764 C105.38189,2.65629921 104.386929,2.34409449 103.198504,2.35433071 L101.699921,2.35433071 L101.699921,11.2076378 Z M100.684488,1.44330709 L103.244567,1.44330709 C105.080945,1.46377953 106.409606,1.95716535 107.229528,2.92244094 C108.03,3.89385827 108.425118,5.17338583 108.414882,6.76204724 C108.396457,8.67007874 107.836535,10.0417323 106.737165,10.8780315 C105.65315,11.7051181 104.23748,12.1186614 102.492205,12.1186614 L100.684488,12.1186614 L100.684488,1.44330709 L100.684488,1.44330709 Z" id="Fill-6" fill="#183267"></path>
                <path d="M115.482992,7.67511811 C115.482992,6.95755906 115.338661,6.33212598 115.048976,5.79574803 C114.743937,5.25425197 114.242362,4.97377953 113.547323,4.95330709 C112.865591,4.97377953 112.326142,5.25937008 111.93,5.81007874 C111.523622,6.36692913 111.320945,6.98826772 111.320945,7.67511811 L115.482992,7.67511811 Z M115.936457,11.876063 C115.227087,12.1524409 114.49622,12.295748 113.743858,12.3049606 C112.508346,12.2803937 111.623937,11.8873228 111.087559,11.1247244 C110.557323,10.3785039 110.296299,9.40913386 110.306535,8.21866142 C110.316772,7.00362205 110.612598,6.01992126 111.196063,5.26755906 C111.760079,4.52133858 112.524724,4.14259843 113.488976,4.13338583 C114.544331,4.15283465 115.316142,4.53669291 115.803386,5.28291339 C116.266063,6.01480315 116.498425,6.92173228 116.498425,8.00165354 L116.498425,8.49503937 L111.320945,8.49503937 C111.320945,9.34362205 111.533858,10.0437795 111.958661,10.5924409 C112.373228,11.1769291 112.99252,11.4737795 113.813465,11.4840157 C114.180945,11.4840157 114.56685,11.4164567 114.972205,11.2813386 C115.378583,11.1728346 115.7,11.0448819 115.936457,10.8995276 L115.936457,11.876063 L115.936457,11.876063 Z" id="Fill-7" fill="#183267"></path>
                <path d="M124.407953,10.2812598 C124.397717,10.873937 124.419213,11.486063 124.472441,12.1186614 L123.568583,12.1186614 L123.568583,10.7296063 L123.538898,10.7296063 C123.471339,10.8985039 123.377165,11.0704724 123.257402,11.2444882 C123.141732,11.4287402 122.989213,11.6027559 122.80189,11.7675591 C122.613543,11.922126 122.381181,12.043937 122.100709,12.1329921 C121.826378,12.2476378 121.491654,12.3049606 121.096535,12.3049606 C120.180394,12.295748 119.521181,12.0091339 119.115827,11.4461417 C118.711496,10.8933858 118.512913,10.1788976 118.52315,9.30165354 L118.52315,4.31968504 L119.44748,4.31968504 L119.44748,9.06110236 C119.44748,9.80937008 119.590787,10.391811 119.875354,10.8114961 C120.155827,11.2598425 120.612362,11.4840157 121.244961,11.4840157 C121.669764,11.4840157 122.030079,11.3918898 122.323858,11.2076378 C122.62378,11.0325984 122.851024,10.8094488 123.005591,10.5351181 C123.183701,10.2505512 123.307559,9.94346457 123.374094,9.61488189 C123.447795,9.2903937 123.483622,8.96385827 123.483622,8.63527559 L123.483622,4.31968504 L124.407953,4.31968504 L124.407953,10.2812598" id="Fill-8" fill="#183267"></path>
                <path d="M130.280472,5.14062992 L128.562835,5.14062992 L128.562835,10.1973228 C128.562835,10.5566142 128.641654,10.8585827 128.801339,11.1032283 C128.946693,11.3570866 129.202598,11.4840157 129.570079,11.4840157 C129.907874,11.4840157 130.195512,11.4215748 130.431969,11.2977165 L130.490315,12.09 C130.379764,12.1299213 130.22622,12.1749606 130.027638,12.2240945 C129.820866,12.2783465 129.594646,12.3049606 129.348976,12.3049606 C128.944646,12.3049606 128.624252,12.2333071 128.388819,12.0889764 C128.161575,11.943622 127.99063,11.7552756 127.875984,11.5208661 C127.774646,11.2772441 127.710157,11.0029134 127.680472,10.6988976 C127.651811,10.3897638 127.636457,10.056063 127.636457,9.69779528 L127.636457,5.14062992 L126.156299,5.14062992 L126.156299,4.31968504 L127.636457,4.31968504 L127.636457,2.43724409 L128.562835,2.10047244 L128.562835,4.31968504 L130.280472,4.31968504 L130.280472,5.14062992" id="Fill-9" fill="#183267"></path>
                <path d="M131.547717,10.9896063 C132.120945,11.3089764 132.776063,11.4737795 133.514094,11.4840157 C133.980866,11.4840157 134.374961,11.3570866 134.698425,11.1032283 C135.015748,10.8688189 135.180551,10.5320472 135.189764,10.0929134 C135.180551,9.6292126 134.997323,9.26582677 134.640079,9.00070866 C134.283858,8.74685039 133.86315,8.51755906 133.382047,8.31385827 C133.154803,8.20330709 132.937795,8.08661417 132.731024,7.96173228 C132.524252,7.83685039 132.325669,7.69968504 132.138346,7.55023622 C131.969449,7.38543307 131.829213,7.19606299 131.718661,6.98212598 C131.612205,6.7784252 131.558976,6.53889764 131.558976,6.26456693 C131.569213,5.48661417 131.824094,4.93590551 132.324646,4.61141732 C132.81189,4.29204724 133.375906,4.13338583 134.016693,4.13338583 C134.233701,4.13338583 134.515197,4.15283465 134.862205,4.19173228 C135.204094,4.25110236 135.542913,4.34834646 135.880709,4.48141732 L135.793701,5.31976378 C135.24811,5.08535433 134.688189,4.96354331 134.113937,4.95330709 C133.630787,4.95330709 133.246929,5.04338583 132.962362,5.22354331 C132.812913,5.31771654 132.697244,5.44771654 132.615354,5.61149606 C132.528346,5.7711811 132.484331,5.98614173 132.484331,6.25535433 C132.484331,6.41503937 132.539606,6.56755906 132.651181,6.71188976 C132.756614,6.84598425 132.898898,6.96779528 133.078031,7.07834646 C133.257165,7.18275591 133.458819,7.29023622 133.686063,7.39976378 C133.912283,7.50417323 134.134409,7.61574803 134.351417,7.73551181 C134.84378,7.95047244 135.272677,8.23708661 135.640157,8.59535433 C136.006614,8.95566929 136.194961,9.45110236 136.205197,10.0847244 C136.205197,10.4931496 136.124331,10.8340157 135.966693,11.1083465 C135.797795,11.3929134 135.585906,11.6222047 135.331024,11.7962205 C134.777244,12.1350394 134.190709,12.3049606 133.56937,12.3049606 C132.842598,12.3049606 132.13937,12.182126 131.461732,11.9354331 L131.547717,10.9896063" id="Fill-10" fill="#183267"></path>
                <path d="M142.993858,5.35149606 C142.458504,5.09661417 141.919055,4.96354331 141.372441,4.95330709 C140.465512,4.96354331 139.770472,5.26346457 139.287323,5.85204724 C138.78063,6.45700787 138.527795,7.24622047 138.527795,8.21866142 C138.527795,9.1276378 138.776535,9.8892126 139.274016,10.5033858 C139.756142,11.1472441 140.42252,11.4737795 141.272126,11.4840157 C141.855591,11.4840157 142.424724,11.3662992 142.980551,11.1318898 L143.066535,12.0316535 C142.454409,12.2240945 141.808504,12.3151969 141.128819,12.3049606 C139.914803,12.2803937 139.009921,11.8668504 138.417244,11.0653543 C137.814331,10.278189 137.513386,9.32929134 137.513386,8.21866142 C137.523622,6.98417323 137.867559,6.00047244 138.547244,5.26755906 C139.222835,4.52133858 140.121575,4.14259843 141.244488,4.13338583 C141.708189,4.13338583 142.092047,4.16716535 142.401181,4.23677165 C142.560866,4.26543307 142.698031,4.29818898 142.813701,4.3319685 C142.924252,4.37188976 143.009213,4.40669291 143.066535,4.43535433 L142.993858,5.35149606" id="Fill-11" fill="#183267"></path>
                <path d="M144.871181,0.643858268 L145.796535,0.643858268 L145.796535,5.62787402 L145.825197,5.62787402 C146.032992,5.19181102 146.339055,4.82944882 146.743386,4.54181102 C147.14874,4.27874016 147.625748,4.14259843 148.175433,4.13338583 C149.182677,4.14259843 149.869528,4.44968504 150.237008,5.0515748 C150.593228,5.66472441 150.76622,6.46314961 150.755984,7.44992126 L150.755984,12.1186614 L149.831654,12.1186614 L149.831654,7.45913386 C149.831654,7.11519685 149.812205,6.78866142 149.773307,6.47952756 C149.730315,6.18472441 149.645354,5.92677165 149.519449,5.7015748 C149.284016,5.21330709 148.787559,4.96354331 148.035197,4.95330709 C147.223465,4.97377953 146.644094,5.29519685 146.296063,5.91858268 C145.95315,6.5419685 145.786299,7.21448819 145.796535,7.93818898 L145.796535,12.1186614 L144.871181,12.1186614 L144.871181,0.643858268" id="Fill-12" fill="#183267"></path>
                <path d="M157.988898,7.67511811 C157.988898,6.95755906 157.843543,6.33212598 157.553858,5.79574803 C157.248819,5.25425197 156.748268,4.97377953 156.052205,4.95330709 C155.370472,4.97377953 154.832047,5.25937008 154.434882,5.81007874 C154.029528,6.36692913 153.825827,6.98826772 153.825827,7.67511811 L157.988898,7.67511811 Z M158.441339,11.876063 C157.732992,12.1524409 157.002126,12.295748 156.249764,12.3049606 C155.014252,12.2803937 154.128819,11.8873228 153.593465,11.1247244 C153.062205,10.3785039 152.801181,9.40913386 152.811417,8.21866142 C152.821654,7.00362205 153.11748,6.01992126 153.700945,5.26755906 C154.264961,4.52133858 155.029606,4.14259843 155.994882,4.13338583 C157.050236,4.15283465 157.822047,4.53669291 158.308268,5.28291339 C158.770945,6.01480315 159.003307,6.92173228 159.003307,8.00165354 L159.003307,8.49503937 L153.825827,8.49503937 C153.825827,9.34362205 154.03874,10.0437795 154.463543,10.5924409 C154.879134,11.1769291 155.497402,11.4737795 156.318346,11.4840157 C156.685827,11.4840157 157.071732,11.4164567 157.47811,11.2813386 C157.883465,11.1728346 158.205906,11.0448819 158.441339,10.8995276 L158.441339,11.876063 L158.441339,11.876063 Z" id="Fill-13" fill="#183267"></path>
                <polyline id="Fill-14" fill="#183267" points="100.639449 19.8029921 105.553858 19.8029921 105.553858 20.7129921 101.654882 20.7129921 101.654882 24.532126 105.372677 24.532126 105.372677 25.4411024 101.654882 25.4411024 101.654882 30.4773228 100.639449 30.4773228 100.639449 19.8029921"></polyline>
                <path d="M107.891811,26.5783465 C107.891811,27.5067717 108.109843,28.2734646 108.544882,28.8774016 C108.960472,29.5110236 109.580787,29.8334646 110.402756,29.8426772 C111.224724,29.8334646 111.853228,29.5110236 112.289291,28.8774016 C112.704882,28.2734646 112.913701,27.5067717 112.913701,26.5783465 C112.913701,25.6448031 112.704882,24.867874 112.289291,24.2485827 C111.853228,23.6354331 111.224724,23.3232283 110.402756,23.3129921 C109.580787,23.3232283 108.960472,23.6354331 108.544882,24.2485827 C108.109843,24.867874 107.891811,25.6448031 107.891811,26.5783465 Z M106.877402,26.5783465 C106.877402,25.4677165 107.164016,24.5188189 107.738268,23.7326772 C108.307402,22.9250394 109.193858,22.5114961 110.399685,22.4920472 C111.623937,22.5114961 112.522677,22.9250394 113.095906,23.7326772 C113.650709,24.5188189 113.92811,25.4677165 113.92811,26.5783465 C113.92811,27.6685039 113.650709,28.6122835 113.095906,29.4086614 C112.522677,30.2203937 111.623937,30.6400787 110.399685,30.6646457 C109.193858,30.6400787 108.307402,30.2203937 107.738268,29.4086614 C107.164016,28.6122835 106.877402,27.6685039 106.877402,26.5783465 L106.877402,26.5783465 Z" id="Fill-15" fill="#183267"></path>
                <path d="M115.969213,24.4185039 C115.969213,23.6968504 115.949764,23.1174803 115.910866,22.6783465 L116.837244,22.6783465 L116.837244,24.171811 L116.864882,24.171811 C117.044016,23.714252 117.294803,23.3232283 117.618268,22.9997638 C117.936614,22.6711811 118.332756,22.5012598 118.804646,22.4920472 C119.051339,22.5012598 119.268346,22.5319685 119.455669,22.5811024 L119.455669,23.5822047 C119.248898,23.521811 119.021654,23.492126 118.775984,23.492126 C118.409528,23.5023622 118.107559,23.5944882 117.871102,23.7695276 C117.634646,23.9527559 117.441181,24.2025197 117.292756,24.5167717 C117.151496,24.8259055 117.053228,25.1575591 116.995906,25.5117323 C116.927323,25.8904724 116.893543,26.2589764 116.893543,26.6182677 L116.893543,30.4773228 L115.969213,30.4773228 L115.969213,24.4185039" id="Fill-16" fill="#183267"></path>
                <path d="M120.483386,29.3492913 C121.057638,29.6686614 121.711732,29.8334646 122.449764,29.8426772 C122.916535,29.8426772 123.311654,29.715748 123.634094,29.4618898 C123.952441,29.2285039 124.11622,28.8917323 124.126457,28.4525984 C124.11622,27.9888976 123.932992,27.6244882 123.576772,27.3603937 C123.219528,27.1055118 122.799843,26.8772441 122.317717,26.6725197 C122.090472,26.5629921 121.874488,26.4452756 121.666693,26.3214173 C121.459921,26.1965354 121.262362,26.0593701 121.074016,25.9088976 C120.905118,25.7451181 120.765906,25.555748 120.654331,25.341811 C120.548898,25.1370866 120.495669,24.8975591 120.495669,24.6232283 C120.505906,23.8452756 120.760787,23.2945669 121.261339,22.9700787 C121.747559,22.6517323 122.311575,22.4920472 122.952362,22.4920472 C123.16937,22.4920472 123.45189,22.5114961 123.797874,22.5514173 C124.139764,22.6107874 124.478583,22.7080315 124.817402,22.8400787 L124.730394,23.6794488 C124.18378,23.4450394 123.623858,23.3232283 123.049606,23.3129921 C122.566457,23.3129921 122.182598,23.4020472 121.898031,23.5822047 C121.748583,23.6774016 121.632913,23.806378 121.551024,23.9711811 C121.464016,24.1308661 121.42,24.3448031 121.42,24.6140157 C121.42,24.7737008 121.476299,24.9262205 121.58685,25.0705512 C121.693307,25.2056693 121.834567,25.3274803 122.013701,25.4370079 C122.192835,25.5414173 122.394488,25.6488976 122.621732,25.7584252 C122.848976,25.8638583 123.070079,25.9754331 123.287087,26.0951969 C123.780472,26.3091339 124.20937,26.595748 124.575827,26.9550394 C124.943307,27.3143307 125.13063,27.8107874 125.140866,28.4433858 C125.140866,28.851811 125.061024,29.1937008 124.903386,29.4680315 C124.733465,29.7515748 124.521575,29.9818898 124.266693,30.1559055 C123.712913,30.4947244 123.126378,30.6646457 122.506063,30.6646457 C121.779291,30.6646457 121.075039,30.541811 120.397402,30.2951181 L120.483386,29.3492913" id="Fill-17" fill="#183267"></path>
                <path d="M131.930551,23.7101575 C131.394173,23.4552756 130.854724,23.3232283 130.309134,23.3129921 C129.401181,23.3232283 128.706142,23.622126 128.224016,24.2117323 C127.717323,24.8156693 127.463465,25.6048819 127.463465,26.5783465 C127.463465,27.4862992 127.713228,28.2488976 128.209685,28.8620472 C128.692835,29.5059055 129.358189,29.8334646 130.207795,29.8426772 C130.79126,29.8426772 131.360394,29.7259843 131.91622,29.4915748 L132.002205,30.390315 C131.390079,30.5827559 130.745197,30.6748819 130.064488,30.6646457 C128.850472,30.6400787 127.945591,30.2255118 127.352913,29.4240157 C126.75,28.637874 126.449055,27.6889764 126.449055,26.5783465 C126.459291,25.3438583 126.803228,24.3601575 127.482913,23.6272441 C128.158504,22.88 129.057244,22.5012598 130.181181,22.4920472 C130.643858,22.4920472 131.02874,22.5268504 131.337874,22.5954331 C131.496535,22.6251181 131.634724,22.657874 131.74937,22.6916535 C131.859921,22.7315748 131.944882,22.7653543 132.002205,22.7950394 L131.930551,23.7101575" id="Fill-18" fill="#183267"></path>
                <path d="M133.807874,19.0025197 L134.732205,19.0025197 L134.732205,23.9875591 L134.760866,23.9875591 C134.968661,23.5504724 135.274724,23.1881102 135.680079,22.9014961 C136.084409,22.6384252 136.561417,22.5012598 137.111102,22.4920472 C138.11937,22.5012598 138.80622,22.8083465 139.172677,23.4112598 C139.529921,24.0233858 139.702913,24.8228346 139.692677,25.8085827 L139.692677,30.4773228 L138.767323,30.4773228 L138.767323,25.8188189 C138.767323,25.4748819 138.748898,25.1473228 138.71,24.8392126 C138.667008,24.5444094 138.582047,24.2854331 138.456142,24.0612598 C138.219685,23.5719685 137.724252,23.3232283 136.97189,23.3129921 C136.160157,23.3334646 135.579764,23.6538583 135.231732,24.2782677 C134.888819,24.9006299 134.721969,25.5741732 134.732205,26.2968504 L134.732205,30.4773228 L133.807874,30.4773228 L133.807874,19.0025197" id="Fill-19" fill="#183267"></path>
                <path d="M148.201024,28.6399213 C148.190787,29.233622 148.212283,29.845748 148.265512,30.4773228 L147.361654,30.4773228 L147.361654,29.0892913 L147.332992,29.0892913 C147.264409,29.258189 147.170236,29.4301575 147.050472,29.6041732 C146.934803,29.7884252 146.783307,29.9624409 146.594961,30.1272441 C146.406614,30.2807874 146.174252,30.4025984 145.89378,30.4926772 C145.619449,30.6062992 145.284724,30.6646457 144.889606,30.6646457 C143.973465,30.6544094 143.314252,30.3677953 142.908898,29.8048031 C142.504567,29.2520472 142.305984,28.5385827 142.31622,27.6613386 L142.31622,22.6783465 L143.241575,22.6783465 L143.241575,27.4197638 C143.241575,28.1690551 143.383858,28.7514961 143.669449,29.1701575 C143.948898,29.6195276 144.405433,29.8426772 145.038031,29.8426772 C145.462835,29.8426772 145.82315,29.7505512 146.116929,29.5673228 C146.41685,29.3922835 146.644094,29.1681102 146.798661,28.8937795 C146.976772,28.6092126 147.10063,28.302126 147.167165,27.9735433 C147.240866,27.6500787 147.276693,27.3225197 147.276693,26.993937 L147.276693,22.6783465 L148.201024,22.6783465 L148.201024,28.6399213" id="Fill-20" fill="#183267"></path>
                <path d="M150.825591,24.5075591 C150.825591,23.9107874 150.806142,23.3017323 150.767244,22.6783465 L151.670079,22.6783465 L151.670079,24.0674016 L151.69874,24.0674016 C151.784724,23.8831496 151.889134,23.6988976 152.008898,23.5156693 C152.124567,23.3303937 152.271969,23.1645669 152.450079,23.0140945 C152.637402,22.850315 152.86874,22.720315 153.143071,22.6261417 C153.42252,22.5370866 153.752126,22.4920472 154.13189,22.4920472 C155.061339,22.5012598 155.72874,22.7888976 156.132047,23.3508661 C156.517953,23.8995276 156.710394,24.6109449 156.710394,25.4871654 L156.710394,30.4773228 L155.785039,30.4773228 L155.785039,25.7287402 C155.785039,24.9855906 155.652992,24.3949606 155.38685,23.9558268 C155.097165,23.5371654 154.631417,23.3232283 153.989606,23.3129921 C153.158425,23.3334646 152.573937,23.6374803 152.236142,24.2250394 C152.062126,24.5044882 151.939291,24.8064567 151.865591,25.1309449 C151.788819,25.4697638 151.749921,25.8137008 151.749921,26.1627559 L151.749921,30.4773228 L150.825591,30.4773228 L150.825591,24.5075591" id="Fill-21" fill="#183267"></path>
                <path d="M159.9,26.5783465 C159.88874,27.3767717 160.055591,28.0769291 160.399528,28.675748 C160.738346,29.3103937 161.299291,29.6369291 162.083386,29.6574016 C162.924803,29.6369291 163.521575,29.3001575 163.875748,28.6450394 C164.213543,28.0114173 164.383465,27.3225197 164.383465,26.5783465 C164.383465,25.6048819 164.225827,24.8207874 163.911575,24.2270866 C163.582992,23.6272441 162.992362,23.3232283 162.140709,23.3129921 C161.696457,23.3129921 161.333071,23.4102362 161.053622,23.605748 C160.768031,23.7848819 160.535669,24.0387402 160.356535,24.3693701 C160.19685,24.6733858 160.079134,25.0203937 160.001339,25.4093701 C159.932756,25.7993701 159.9,26.1893701 159.9,26.5783465 Z M165.307795,29.8355118 C165.307795,30.9461417 165.046772,31.8755906 164.525748,32.621811 C163.981181,33.3731496 163.062992,33.7590551 161.771181,33.7795276 C161.274724,33.7692913 160.818189,33.7150394 160.403622,33.6167717 C159.999291,33.5113386 159.692205,33.4304724 159.485433,33.3711024 L159.565276,32.4129921 C160.187638,32.7569291 160.929764,32.9391339 161.789606,32.9585827 C162.393543,32.9483465 162.865433,32.8367717 163.20937,32.6228346 C163.566614,32.4191339 163.829685,32.1335433 163.999606,31.7650394 C164.177717,31.3975591 164.291339,30.9748031 164.339449,30.4967717 C164.37937,30.0187402 164.397795,29.5048819 164.397795,28.952126 L164.36811,28.952126 C163.83378,29.9890551 163.069134,30.4977953 162.075197,30.4773228 C160.888819,30.4476378 160.058661,30.0095276 159.586772,29.1629921 C159.335984,28.7740157 159.161969,28.356378 159.065748,27.9080315 C158.944961,27.459685 158.885591,27.0174803 158.885591,26.5783465 C158.875354,25.3633071 159.117953,24.3847244 159.616457,23.6425984 C160.107795,22.8851181 160.901102,22.5012598 161.996378,22.4920472 C162.491811,22.4920472 162.928898,22.5483465 163.304567,22.6629921 C163.666929,22.8011811 164.015984,23.0970079 164.354803,23.5525197 L164.383465,23.5525197 L164.383465,22.6762992 L165.307795,22.6783465 L165.307795,29.8355118 L165.307795,29.8355118 Z" id="Fill-22" fill="#183267"></path>
                <path d="M167.26189,29.3492913 C167.836142,29.6686614 168.49126,29.8334646 169.228268,29.8426772 C169.695039,29.8426772 170.090157,29.715748 170.412598,29.4618898 C170.730945,29.2285039 170.894724,28.8917323 170.904961,28.4525984 C170.894724,27.9888976 170.711496,27.6244882 170.355276,27.3603937 C169.998031,27.1055118 169.578346,26.8772441 169.09622,26.6725197 C168.87,26.5629921 168.652992,26.4452756 168.44622,26.3214173 C168.238425,26.1965354 168.040866,26.0593701 167.85252,25.9088976 C167.683622,25.7451181 167.544409,25.555748 167.432835,25.341811 C167.327402,25.1370866 167.274173,24.8975591 167.274173,24.6232283 C167.284409,23.8452756 167.539291,23.2945669 168.039843,22.9700787 C168.527087,22.6517323 169.090079,22.4920472 169.730866,22.4920472 C169.947874,22.4920472 170.230394,22.5114961 170.577402,22.5514173 C170.919291,22.6107874 171.25811,22.7080315 171.595906,22.8400787 L171.508898,23.6794488 C170.963307,23.4450394 170.403386,23.3232283 169.82811,23.3129921 C169.345984,23.3129921 168.962126,23.4020472 168.676535,23.5822047 C168.52811,23.6774016 168.411417,23.806378 168.329528,23.9711811 C168.24252,24.1308661 168.198504,24.3448031 168.198504,24.6140157 C168.198504,24.7737008 168.254803,24.9262205 168.365354,25.0705512 C168.471811,25.2056693 168.614094,25.3274803 168.792205,25.4370079 C168.971339,25.5414173 169.174016,25.6488976 169.400236,25.7584252 C169.62748,25.8638583 169.849606,25.9754331 170.066614,26.0951969 C170.558976,26.3091339 170.987874,26.595748 171.354331,26.9550394 C171.721811,27.3143307 171.909134,27.8107874 171.91937,28.4433858 C171.91937,28.851811 171.839528,29.1937008 171.68189,29.4680315 C171.512992,29.7515748 171.301102,29.9818898 171.04622,30.1559055 C170.492441,30.4947244 169.904882,30.6646457 169.284567,30.6646457 C168.557795,30.6646457 167.853543,30.541811 167.175906,30.2951181 L167.26189,29.3492913" id="Fill-23" fill="#183267"></path>
                <path d="M174.362756,26.5783465 C174.351496,27.3767717 174.518346,28.0769291 174.862283,28.675748 C175.201102,29.3103937 175.762047,29.6369291 176.546142,29.6574016 C177.387559,29.6369291 177.984331,29.3001575 178.338504,28.6450394 C178.676299,28.0114173 178.84622,27.3225197 178.84622,26.5783465 C178.84622,25.6048819 178.687559,24.8207874 178.374331,24.2270866 C178.045748,23.6272441 177.455118,23.3232283 176.603465,23.3129921 C176.159213,23.3129921 175.795827,23.4102362 175.516378,23.605748 C175.230787,23.7848819 174.998425,24.0387402 174.819291,24.3693701 C174.659606,24.6733858 174.54189,25.0203937 174.464094,25.4093701 C174.395512,25.7993701 174.362756,26.1893701 174.362756,26.5783465 Z M179.770551,29.8355118 C179.770551,30.9461417 179.509528,31.8755906 178.988504,32.621811 C178.443937,33.3731496 177.525748,33.7590551 176.233937,33.7795276 C175.73748,33.7692913 175.280945,33.7150394 174.866378,33.6167717 C174.462047,33.5113386 174.154961,33.4304724 173.948189,33.3711024 L174.028031,32.4129921 C174.650394,32.7569291 175.39252,32.9391339 176.252362,32.9585827 C176.855276,32.9483465 177.328189,32.8367717 177.672126,32.6228346 C178.02937,32.4191339 178.292441,32.1335433 178.462362,31.7650394 C178.640472,31.3975591 178.754094,30.9748031 178.802205,30.4967717 C178.842126,30.0187402 178.860551,29.5048819 178.860551,28.952126 L178.830866,28.952126 C178.296535,29.9890551 177.53189,30.4977953 176.537953,30.4773228 C175.351575,30.4476378 174.521417,30.0095276 174.049528,29.1629921 C173.79874,28.7740157 173.624724,28.356378 173.52748,27.9080315 C173.407717,27.459685 173.348346,27.0174803 173.348346,26.5783465 C173.33811,25.3633071 173.580709,24.3847244 174.079213,23.6425984 C174.570551,22.8851181 175.362835,22.5012598 176.459134,22.4920472 C176.954567,22.4920472 177.391654,22.5483465 177.767323,22.6629921 C178.129685,22.8011811 178.47874,23.0970079 178.816535,23.5525197 L178.84622,23.5525197 L178.84622,22.6762992 L179.770551,22.6783465 L179.770551,29.8355118 L179.770551,29.8355118 Z" id="Fill-24" fill="#183267"></path>
                <path d="M186.914409,26.0337795 C186.914409,25.3172441 186.769055,24.6907874 186.47937,24.1554331 C186.174331,23.6129134 185.67378,23.3334646 184.977717,23.3129921 C184.295984,23.3334646 183.757559,23.6180315 183.360394,24.1697638 C182.954016,24.7255906 182.751339,25.3479528 182.751339,26.0337795 L186.914409,26.0337795 Z M187.36685,30.235748 C186.658504,30.512126 185.927638,30.6544094 185.174252,30.6646457 C183.93874,30.6400787 183.054331,30.2459843 182.518976,29.4844094 C181.987717,28.7371654 181.726693,27.7688189 181.736929,26.5783465 C181.747165,25.3633071 182.042992,24.3796063 182.626457,23.6272441 C183.190472,22.88 183.955118,22.5012598 184.91937,22.4920472 C185.975748,22.5114961 186.747559,22.8953543 187.23378,23.6425984 C187.696457,24.3734646 187.928819,25.2803937 187.928819,26.3613386 L187.928819,26.8537008 L182.751339,26.8537008 C182.751339,27.7022835 182.964252,28.4024409 183.389055,28.952126 C183.804646,29.5355906 184.422913,29.8334646 185.243858,29.8426772 C185.611339,29.8426772 185.997244,29.7761417 186.403622,29.6410236 C186.808976,29.5314961 187.131417,29.4045669 187.36685,29.2592126 L187.36685,30.235748 L187.36685,30.235748 Z" id="Fill-25" fill="#183267"></path>
                <path d="M199.224488,30.4773228 L199.224488,25.2875591 C199.224488,24.9988976 199.204016,24.7317323 199.164094,24.4870866 C199.103701,24.2526772 199.005433,24.0479528 198.869291,23.873937 C198.748504,23.6937795 198.58063,23.5525197 198.363622,23.4470866 C198.147638,23.3580315 197.878425,23.3129921 197.555984,23.3129921 C197.013465,23.3129921 196.529291,23.5371654 196.107559,23.9865354 C195.674567,24.4553543 195.452441,25.1811024 195.443228,26.1627559 L195.443228,30.4773228 L194.517874,30.4773228 L194.517874,25.2875591 C194.517874,24.9988976 194.495354,24.7317323 194.450315,24.4870866 C194.389921,24.2526772 194.291654,24.0479528 194.156535,23.873937 C194.035748,23.6937795 193.86685,23.5525197 193.650866,23.4470866 C193.433858,23.3580315 193.164646,23.3129921 192.843228,23.3129921 C192.298661,23.3129921 191.816535,23.5371654 191.39378,23.9865354 C190.960787,24.4553543 190.739685,25.1811024 190.729449,26.1627559 L190.729449,30.4773228 L189.803071,30.4773228 L189.803071,24.5085827 C189.803071,23.9107874 189.783622,23.3017323 189.744724,22.6783465 L190.675197,22.6783465 L190.675197,23.9937008 L190.704882,24.0080315 C190.774488,23.8637008 190.871732,23.7050394 190.995591,23.53 C191.094882,23.3559843 191.236142,23.194252 191.41937,23.0448031 C191.603622,22.8902362 191.830866,22.7551181 192.104173,22.6414961 C192.37748,22.5411811 192.717323,22.4920472 193.123701,22.4920472 C193.307953,22.4920472 193.506535,22.5114961 193.719449,22.5514173 C193.92315,22.5913386 194.125827,22.6732283 194.330551,22.7970866 C194.533228,22.9117323 194.712362,23.0755118 194.865906,23.2884252 C195.015354,23.5115748 195.121811,23.7940945 195.186299,24.1370079 L195.215984,24.1370079 C195.408425,23.6702362 195.719606,23.2812598 196.146457,22.9680315 C196.563071,22.6609449 197.081024,22.5012598 197.702362,22.4920472 C198.490551,22.5012598 199.098583,22.7459055 199.525433,23.223937 C199.942047,23.6968504 200.150866,24.3253543 200.150866,25.106378 L200.150866,30.4773228 L199.224488,30.4773228" id="Fill-26" fill="#183267"></path>
                <path d="M207.307008,26.0337795 C207.307008,25.3172441 207.162677,24.6907874 206.872992,24.1554331 C206.567953,23.6129134 206.067402,23.3334646 205.371339,23.3129921 C204.689606,23.3334646 204.150157,23.6180315 203.754016,24.1697638 C203.347638,24.7255906 203.144961,25.3479528 203.144961,26.0337795 L207.307008,26.0337795 Z M207.760472,30.235748 C207.051102,30.512126 206.32126,30.6544094 205.567874,30.6646457 C204.332362,30.6400787 203.447953,30.2459843 202.911575,29.4844094 C202.381339,28.7371654 202.120315,27.7688189 202.130551,26.5783465 C202.140787,25.3633071 202.436614,24.3796063 203.020079,23.6272441 C203.584094,22.88 204.34874,22.5012598 205.312992,22.4920472 C206.368346,22.5114961 207.140157,22.8953543 207.627402,23.6425984 C208.090079,24.3734646 208.322441,25.2803937 208.322441,26.3613386 L208.322441,26.8537008 L203.144961,26.8537008 C203.144961,27.7022835 203.357874,28.4024409 203.782677,28.952126 C204.197244,29.5355906 204.816535,29.8334646 205.63748,29.8426772 C206.004961,29.8426772 206.390866,29.7761417 206.79622,29.6410236 C207.202598,29.5314961 207.524016,29.4045669 207.760472,29.2592126 L207.760472,30.235748 L207.760472,30.235748 Z" id="Fill-27" fill="#183267"></path>
                <path d="M210.348189,30.4773228 L211.27252,30.4773228 L211.27252,22.6783465 L210.348189,22.6783465 L210.348189,30.4773228 Z M210.348189,20.594252 L211.27252,20.594252 L211.27252,19.3106299 L210.348189,19.3106299 L210.348189,20.594252 Z" id="Fill-28" fill="#183267"></path>
                <path d="M213.746614,24.5075591 C213.746614,23.9107874 213.728189,23.3017323 213.689291,22.6783465 L214.592126,22.6783465 L214.592126,24.0674016 L214.620787,24.0674016 C214.706772,23.8831496 214.811181,23.6988976 214.930945,23.5156693 C215.046614,23.3303937 215.194016,23.1645669 215.371102,23.0140945 C215.559449,22.850315 215.790787,22.720315 216.065118,22.6261417 C216.344567,22.5370866 216.674173,22.4920472 217.053937,22.4920472 C217.983386,22.5012598 218.649764,22.7888976 219.054094,23.3508661 C219.44,23.8995276 219.631417,24.6109449 219.631417,25.4871654 L219.631417,30.4773228 L218.707087,30.4773228 L218.707087,25.7287402 C218.707087,24.9855906 218.574016,24.3949606 218.308898,23.9558268 C218.018189,23.5371654 217.552441,23.3232283 216.91063,23.3129921 C216.080472,23.3334646 215.494961,23.6374803 215.157165,24.2250394 C214.98315,24.5044882 214.860315,24.8064567 214.787638,25.1309449 C214.710866,25.4697638 214.671969,25.8137008 214.671969,26.1627559 L214.671969,30.4773228 L213.746614,30.4773228 L213.746614,24.5075591" id="Fill-29" fill="#183267"></path>
                <path d="M221.676614,29.3492913 C222.249843,29.6686614 222.904961,29.8334646 223.641969,29.8426772 C224.109764,29.8426772 224.503858,29.715748 224.827323,29.4618898 C225.144646,29.2285039 225.308425,28.8917323 225.318661,28.4525984 C225.308425,27.9888976 225.12622,27.6244882 224.768976,27.3603937 C224.411732,27.1055118 223.992047,26.8772441 223.510945,26.6725197 C223.283701,26.5629921 223.066693,26.4452756 222.859921,26.3214173 C222.65315,26.1965354 222.454567,26.0593701 222.267244,25.9088976 C222.098346,25.7451181 221.95811,25.555748 221.847559,25.341811 C221.741102,25.1370866 221.687874,24.8975591 221.687874,24.6232283 C221.69811,23.8452756 221.952992,23.2945669 222.453543,22.9700787 C222.940787,22.6517323 223.504803,22.4920472 224.145591,22.4920472 C224.362598,22.4920472 224.644094,22.5114961 224.991102,22.5514173 C225.332992,22.6107874 225.671811,22.7080315 226.009606,22.8400787 L225.922598,23.6794488 C225.377008,23.4450394 224.817087,23.3232283 224.241811,23.3129921 C223.759685,23.3129921 223.375827,23.4020472 223.090236,23.5822047 C222.941811,23.6774016 222.826142,23.806378 222.744252,23.9711811 C222.657244,24.1308661 222.613228,24.3448031 222.613228,24.6140157 C222.613228,24.7737008 222.668504,24.9262205 222.780079,25.0705512 C222.885512,25.2056693 223.027795,25.3274803 223.206929,25.4370079 C223.385039,25.5414173 223.587717,25.6488976 223.813937,25.7584252 C224.041181,25.8638583 224.263307,25.9754331 224.480315,26.0951969 C224.972677,26.3091339 225.401575,26.595748 225.769055,26.9550394 C226.135512,27.3143307 226.323858,27.8107874 226.333071,28.4433858 C226.333071,28.851811 226.253228,29.1937008 226.095591,29.4680315 C225.926693,29.7515748 225.714803,29.9818898 225.459921,30.1559055 C224.906142,30.4947244 224.319606,30.6646457 223.698268,30.6646457 C222.971496,30.6646457 222.268268,30.541811 221.59063,30.2951181 L221.676614,29.3492913" id="Fill-30" fill="#183267"></path>
                <path d="M233.122756,23.7101575 C232.587402,23.4552756 232.046929,23.3232283 231.501339,23.3129921 C230.593386,23.3232283 229.89937,23.622126 229.41622,24.2117323 C228.909528,24.8156693 228.656693,25.6048819 228.656693,26.5783465 C228.656693,27.4862992 228.905433,28.2488976 229.40189,28.8620472 C229.885039,29.5059055 230.550394,29.8334646 231.401024,29.8426772 C231.984488,29.8426772 232.553622,29.7259843 233.108425,29.4915748 L233.194409,30.390315 C232.583307,30.5827559 231.937402,30.6748819 231.257717,30.6646457 C230.042677,30.6400787 229.138819,30.2255118 228.545118,29.4240157 C227.943228,28.637874 227.642283,27.6889764 227.642283,26.5783465 C227.651496,25.3438583 227.995433,24.3601575 228.675118,23.6272441 C229.351732,22.88 230.250472,22.5012598 231.373386,22.4920472 C231.836063,22.4920472 232.220945,22.5268504 232.530079,22.5954331 C232.68874,22.6251181 232.826929,22.657874 232.941575,22.6916535 C233.05315,22.7315748 233.13811,22.7653543 233.194409,22.7950394 L233.122756,23.7101575" id="Fill-31" fill="#183267"></path>
                <path d="M234.999055,19.0025197 L235.923386,19.0025197 L235.923386,23.9875591 L235.953071,23.9875591 C236.160866,23.5504724 236.466929,23.1881102 236.87126,22.9014961 C237.276614,22.6384252 237.753622,22.5012598 238.303307,22.4920472 C239.310551,22.5012598 239.997402,22.8083465 240.363858,23.4112598 C240.721102,24.0233858 240.894094,24.8228346 240.883858,25.8085827 L240.883858,30.4773228 L239.959528,30.4773228 L239.959528,25.8188189 C239.959528,25.4748819 239.940079,25.1473228 239.901181,24.8392126 C239.858189,24.5444094 239.773228,24.2854331 239.647323,24.0612598 C239.41189,23.5719685 238.915433,23.3232283 238.163071,23.3129921 C237.351339,23.3334646 236.771969,23.6538583 236.423937,24.2782677 C236.081024,24.9006299 235.914173,25.5741732 235.923386,26.2968504 L235.923386,30.4773228 L234.999055,30.4773228 L234.999055,19.0025197" id="Fill-32" fill="#183267"></path>
                <path d="M247.758504,26.5476378 L247.490315,26.5476378 C247.084961,26.5476378 246.678583,26.557874 246.273228,26.5783465 C245.848425,26.6172441 245.461496,26.7052756 245.113465,26.8403937 C244.765433,26.9601575 244.488031,27.1464567 244.28126,27.4013386 C244.052992,27.6613386 243.940394,28.0052756 243.940394,28.4351969 C243.940394,28.9347244 244.099055,29.2919685 244.417402,29.5059055 C244.712205,29.7311024 245.077638,29.8426772 245.512677,29.8426772 C246.058268,29.8426772 246.488189,29.7311024 246.801417,29.5059055 C247.111575,29.2919685 247.335748,29.0370866 247.475984,28.7422835 C247.620315,28.4229134 247.703228,28.1107087 247.722677,27.8056693 C247.74622,27.4862992 247.758504,27.224252 247.758504,27.0195276 L247.758504,26.5476378 Z M247.844488,29.2295276 L247.815827,29.2295276 C247.598819,29.6850394 247.266142,30.0351181 246.817795,30.2777165 C246.373543,30.5254331 245.905748,30.6544094 245.414409,30.6646457 C244.888268,30.6544094 244.463465,30.5674016 244.141024,30.403622 C243.803228,30.2500787 243.545276,30.0555906 243.367165,29.8222047 C243.05189,29.3155118 242.905512,28.8620472 242.924961,28.4648819 C242.924961,27.8128346 243.07748,27.2989764 243.381496,26.9212598 C243.680394,26.5435433 244.061181,26.2722835 244.524882,26.1074803 C244.987559,25.9385827 245.491181,25.8259843 246.035748,25.7727559 C246.572126,25.7420472 247.085984,25.7277165 247.577323,25.7277165 L247.758504,25.7277165 L247.758504,25.3285039 C247.788189,23.9855118 247.213937,23.3129921 246.033701,23.3129921 C245.252677,23.3037795 244.510551,23.5187402 243.810394,23.9599213 L243.810394,23.0243307 C244.509528,22.6896063 245.249606,22.5114961 246.03063,22.4920472 C247.818898,22.4725984 248.703307,23.4399213 248.682835,25.3970866 L248.682835,28.8415748 C248.668504,29.434252 248.694094,29.9798425 248.761654,30.4773228 L247.844488,30.4773228 L247.844488,29.2295276 L247.844488,29.2295276 Z" id="Fill-33" fill="#183267"></path>
                <path d="M251.792598,23.500315 L250.267402,23.500315 L250.267402,22.6783465 L251.792598,22.6783465 L251.792598,22.1112598 C251.792598,21.6925984 251.812047,21.2841732 251.850945,20.8859843 C251.870394,20.4970079 251.945118,20.1510236 252.075118,19.8480315 C252.2,19.5286614 252.401654,19.277874 252.682126,19.0925984 C252.945197,18.9134646 253.314724,18.8244094 253.786614,18.8244094 C253.945276,18.8244094 254.108031,18.8285039 254.276929,18.8387402 C254.445827,18.8694488 254.572756,18.9134646 254.659764,18.9728346 L254.602441,19.8162992 C254.393622,19.7026772 254.147953,19.6443307 253.863386,19.6443307 C253.553228,19.6443307 253.319843,19.7180315 253.160157,19.8613386 C252.990236,20.0261417 252.877638,20.225748 252.819291,20.4591339 C252.761969,20.6935433 252.732283,20.9433071 252.732283,21.2074016 C252.723071,21.4807087 252.717953,21.7448031 252.717953,21.9986614 L252.717953,22.6783465 L254.42126,22.6783465 L254.42126,23.500315 L252.717953,23.500315 L252.717953,30.4773228 L251.792598,30.4773228 L251.792598,23.500315" id="Fill-34" fill="#183267"></path>
                <path d="M259.501496,23.500315 L257.782835,23.500315 L257.782835,28.5559843 C257.782835,28.9162992 257.861654,29.2172441 258.021339,29.4618898 C258.166693,29.715748 258.422598,29.8426772 258.790079,29.8426772 C259.127874,29.8426772 259.416535,29.7812598 259.651969,29.656378 L259.710315,30.449685 C259.599764,30.4896063 259.44622,30.533622 259.248661,30.5827559 C259.040866,30.6380315 258.814646,30.6646457 258.57,30.6646457 C258.164646,30.6646457 257.845276,30.5929921 257.608819,30.4476378 C257.381575,30.3033071 257.21063,30.113937 257.095984,29.8795276 C256.994646,29.6359055 256.930157,29.3625984 256.901496,29.0585827 C256.871811,28.7494488 256.85748,28.415748 256.85748,28.0574803 L256.85748,23.500315 L255.376299,23.500315 L255.376299,22.6783465 L256.85748,22.6783465 L256.85748,20.7959055 L257.782835,20.4601575 L257.782835,22.6783465 L259.501496,22.6783465 L259.501496,23.500315" id="Fill-35" fill="#183267"></path>
            </g>
        </g>
    </g>
</svg>
